<?xml version="1.0" encoding="UTF-8"?>
<svg width="1200px" height="495px" viewBox="0 0 1200 495" version="1.1" xmlns="http://www.w3.org/2000/svg" xmlns:xlink="http://www.w3.org/1999/xlink">
    <title>logo</title>
    <g id="logo" stroke="none" stroke-width="1" fill="none" fill-rule="evenodd">
        <g id="Assets/Logo" fill-rule="nonzero">
            <g id="Zeichenfläche-1">
                <path d="M76.5448505,350.830565 L51.8272425,350.830565 L51.8272425,459.946844 L76.0664452,459.946844 L76.0664452,447.986711 L76.5448505,447.986711 C82.3064167,457.479735 92.8488565,463.004157 103.933555,462.33887 C131.840532,462.33887 143.521595,437.541528 143.521595,411.667774 C143.521595,379.056478 125.182724,363.109635 104.491694,363.109635 C93.3423181,362.562949 82.8038709,368.223337 77.10299,377.820598 L76.5448505,377.820598 L76.5448505,350.830565 Z M117.647841,413.501661 C117.647841,424.624585 113.182724,442.006645 97.076412,442.006645 C80.9700997,442.006645 75.1893688,428.890365 75.1893688,414.89701 C75.1893688,399.86711 79.4152824,384.598007 96.3986711,384.598007 C112.106312,384.598007 117.448505,398.352159 117.448505,413.501661" id="Shape" fill="#143A84"></path>
                <path d="M82.9634551,288.039867 C76.9758626,278.415411 66.3904891,272.623699 55.0564784,272.770764 C30.9767442,272.770764 19.9335548,293.421927 19.9335548,315.986711 C19.9335548,340.066445 30.0598007,358.803987 55.3355482,358.803987 C66.7605716,358.670521 77.2147831,352.352209 82.6445183,342.299003 L82.6445183,342.299003 L82.6445183,356.611296 L91.6943522,356.611296 L91.6943522,243.189369 L82.9634551,243.189369 L82.9634551,288.039867 Z M82.9634551,315.58804 C82.9634551,335.282392 73.5548173,350.392027 56.4916944,350.392027 C41.1827243,350.392027 29.9800664,338.910299 29.9800664,318.498339 C29.9800664,298.086379 37.9534884,281.461794 56.8106312,281.461794 C73.3554817,281.461794 83.282392,297.408638 83.282392,315.86711" id="Shape-2" fill="#1D1D1B"></path>
                <path d="M139.534884,308.053156 C120.797342,310.564784 111.627907,318.657807 111.627907,331.973422 C111.627907,347.322259 124.265781,354.817276 138.657807,354.817276 C150.084112,354.899585 160.981875,350.010869 168.518272,341.421927 C168.518272,346.963455 169.754153,352.345515 175.893688,353.38206 C177.266203,353.700777 178.670699,353.861291 180.079734,353.860465 C182.581075,353.666344 185.039754,353.102057 187.375415,352.186047 L187.375415,345.169435 C179.401993,347.920266 177.647841,346.245847 177.647841,339.069767 L177.647841,295.813953 C177.647841,277.395349 164.810631,271.096346 148.504983,271.096346 C131.083056,271.096346 116.9701,278.671096 115.614618,297.368771 L125.023256,297.368771 C126.697674,283.534884 135.548173,279.388704 148.385382,279.388704 C162.777409,279.388704 168.318937,286.086379 168.318937,295.335548 C168.318937,298.126246 168.318937,302.033223 164.930233,303.627907 C160.99503,305.022965 156.89339,305.894228 152.730897,306.219269 L139.534884,308.053156 Z M167.960133,323.401993 C167.960133,339.348837 153.448505,346.564784 138.777409,346.564784 C129.92691,346.564784 121.395349,341.940199 121.395349,332.292359 C121.395349,321.607973 129.92691,316.345515 144,315.428571 C152.170721,315.187815 160.248605,313.626091 167.920266,310.803987 L167.960133,323.401993 Z" id="Shape-3" fill="#1D1D1B"></path>
                <path d="M204.518272,354.817276 L195.348837,354.817276 L195.348837,273.448505 L204.518272,273.448505 L204.518272,285.727575 L204.518272,285.727575 C209.238301,276.579736 218.744521,270.906918 229.036545,271.096346 C239.672895,269.959381 249.559044,276.719141 252.358804,287.043189 C256.986323,276.984537 267.207665,270.69448 278.272425,271.096346 C299.920266,271.096346 302.990033,287.043189 302.990033,303.348837 L302.990033,354.817276 L294.099668,354.817276 L294.099668,298.604651 C294.099668,286.963455 290.112957,279.747508 277.076412,279.747508 C269.943577,279.711006 263.243747,283.165141 259.136213,288.996678 C255.4415,295.710744 253.649525,303.305962 253.953488,310.963455 L253.953488,354.817276 L244.704319,354.817276 L244.704319,298.604651 C244.704319,286.963455 240.717608,279.747508 227.72093,279.747508 C220.647671,279.776308 214.02437,283.221613 209.940199,288.996678 C206.246728,295.712632 204.441922,303.303835 204.717608,310.963455 L204.518272,354.817276 Z" id="Path" fill="#1D1D1B"></path>
                <path d="M332.451827,341.621262 C338.998152,351.407754 350.103606,357.156105 361.873754,356.850498 C387.069767,356.850498 398.671096,336.27907 398.671096,313.833887 C398.671096,289.913621 388.026578,271.096346 361.395349,271.096346 C349.581671,271.134327 338.673076,277.430665 332.730897,287.641196 L332.730897,287.641196 L332.730897,273.289037 L322.923588,273.289037 L322.923588,386.710963 L332.451827,386.710963 L332.451827,341.621262 Z M332.451827,314.192691 C332.451827,294.578073 342.33887,279.468439 360.358804,279.468439 C376.305648,279.468439 388.265781,290.910299 388.584718,311.362126 C388.903654,331.813953 380.172757,348.438538 360.358804,348.438538 C343.016611,348.438538 332.451827,332.730897 332.451827,314.112957" id="Shape-4" fill="#1D1D1B"></path>
                <path d="M410.631229,281.10299 L410.631229,273.129568 L422.312292,273.129568 L422.312292,260.332226 C422.312292,247.415282 426.817276,239.202658 438.89701,239.202658 C441.450302,239.155833 444.001711,239.369564 446.511628,239.840532 L446.511628,248.491694 C444.741839,248.019696 442.921085,247.765326 441.089701,247.734219 C431.72093,247.734219 431.362126,255.707641 431.362126,263.162791 L431.362126,273.209302 L446.511628,273.209302 L446.511628,281.182724 L431.043189,281.182724 L431.043189,354.817276 L421.993355,354.817276 L421.993355,281.10299 L410.631229,281.10299 Z" id="Path-2" fill="#1D1D1B"></path>
                <path d="M464.053156,342.299003 L464.053156,342.299003 C470.025677,352.512774 480.96552,358.794459 492.797342,358.803987 C519.468439,358.803987 530.232558,340.066445 530.232558,315.986711 C530.232558,293.142857 518.591362,272.770764 493.315615,272.770764 C481.503787,272.561359 470.376202,278.297382 463.694352,288.039867 L463.694352,243.189369 L454.48505,243.189369 L454.48505,356.611296 L464.053156,356.611296 L464.053156,342.299003 Z M464.053156,315.508306 C464.053156,297.089701 474.578073,281.10299 491.960133,281.10299 C511.893688,281.10299 521.10299,297.607973 519.86711,318.139535 C518.631229,338.671096 507.906977,350.033223 491.960133,350.033223 C473.900332,350.033223 464.053156,334.923588 464.053156,315.229236" id="Shape-5" fill="#1D1D1B"></path>
                <path d="M574.086379,308.053156 C555.388704,310.803987 546.179402,318.657807 546.179402,331.973422 C546.179402,347.322259 558.89701,354.817276 573.209302,354.817276 C584.635607,354.899585 595.53337,350.010869 603.069767,341.421927 C603.069767,346.963455 604.305648,352.345515 610.445183,353.38206 C611.752736,353.686024 613.089547,353.846441 614.431894,353.860465 C616.927142,353.704712 619.385635,353.180771 621.727575,352.305648 L621.727575,345.169435 C613.754153,347.920266 611.920266,346.245847 611.920266,339.069767 L611.920266,295.813953 C611.920266,277.395349 599.162791,271.096346 582.857143,271.096346 C565.355482,271.096346 551.322259,278.671096 549.887043,297.368771 L559.375415,297.368771 C561.049834,283.534884 569.900332,279.388704 582.737542,279.388704 C597.129568,279.388704 603.0299,286.086379 603.0299,295.335548 C603.0299,298.126246 603.0299,302.033223 599.641196,303.627907 C595.693485,305.027281 591.578098,305.898618 587.401993,306.219269 L574.086379,308.053156 Z M602.551495,323.401993 C602.551495,339.348837 588,346.564784 573.289037,346.564784 C564.478405,346.564784 555.986711,341.940199 555.986711,332.292359 C555.986711,321.607973 564.478405,316.345515 578.551495,315.428571 C586.721599,315.182247 594.798597,313.620694 602.471761,310.803987 L602.551495,323.401993 Z" id="Shape-6" fill="#1D1D1B"></path>
                <path d="M629.900332,354.817276 L629.900332,243.189369 L639.149502,243.189369 L639.149502,285.368771 C645.304766,277.183468 654.828143,272.21666 665.063123,271.853821 C674.635596,271.246191 683.849339,275.597125 689.461794,283.375415 C692.727939,288.929949 694.125358,295.386023 693.448505,301.79402 L693.448505,354.33887 L684.119601,354.33887 L684.119601,302.511628 C684.119601,288.159468 678.299003,280.82392 663.428571,280.82392 C653.409265,280.758434 644.448277,287.047128 641.10299,296.491694 C639.514258,301.404377 638.825471,306.563524 639.069767,311.72093 L639.069767,354.817276 L629.900332,354.817276 Z" id="Path-3" fill="#1D1D1B"></path>
                <path d="M722.870432,354.817276 L713.621262,354.817276 L713.621262,273.807309 L722.870432,273.807309 L722.870432,284.810631 C728.97816,276.553068 738.519339,271.532939 748.784053,271.17608 C758.386562,270.508046 767.639757,274.907849 773.182724,282.777409 C776.45602,288.387578 777.852732,294.896259 777.169435,301.355482 L777.169435,354.33887 L767.920266,354.33887 L767.920266,301.953488 C767.920266,287.481728 762.019934,280.106312 747.149502,280.106312 C737.061062,280.094114 728.084308,286.506081 724.82392,296.053156 C723.234529,301.006853 722.5459,306.205326 722.790698,311.401993 L722.870432,354.817276 Z" id="Path-4" fill="#1D1D1B"></path>
                <path d="M828.757475,354.817276 L803.401993,354.817276 L803.401993,279.069767 L789.368771,279.069767 L789.368771,261.528239 L803.401993,261.528239 L803.401993,253.913621 C803.401993,234.578073 814.285714,227.242525 831.30897,227.242525 L844.345515,227.242525 L844.345515,247.17608 L837.328904,247.17608 C828.637874,247.17608 828.478405,249.847176 828.478405,257.501661 L828.478405,261.169435 L845.182724,261.169435 L845.182724,279.069767 L828.677741,279.069767 L828.757475,354.817276 Z" id="Path-5" fill="#143A84"></path>
                <path d="M940.54485,356.332226 L916.943522,356.332226 L916.943522,343.215947 L916.943522,343.215947 C911.224394,353.371213 900.235663,359.398787 888.598007,358.76412 C870.259136,358.76412 856.983389,348.318937 856.983389,324.837209 L856.983389,263.72093 L881.421927,263.72093 L881.421927,320.69103 C881.421927,335.083056 889.833887,337.833887 897.368771,337.833887 C904.903654,337.833887 916.265781,333.289037 916.265781,316.664452 L916.265781,263.122924 L940.863787,263.122924 L940.54485,356.332226 Z" id="Path-6" fill="#143A84"></path>
                <path d="M956.810631,261.568106 L981.009967,261.568106 L981.009967,277.754153 L981.368771,277.754153 C986.591362,268.225914 992.41196,259.136213 1007.72093,259.136213 C1009.36369,259.075561 1011.00815,259.195886 1012.62458,259.495017 L1012.62458,284.41196 C1010.3099,284.1335 1007.97888,284.013619 1005.64784,284.053156 C985.913621,284.053156 982.325581,296.013289 982.325581,306.259136 L982.325581,354.817276 L957.009967,354.817276 L956.810631,261.568106 Z" id="Path-7" fill="#143A84"></path>
                <polygon id="Path-8" fill="#143A84" points="1049.54153 354.817276 1024.58472 354.817276 1024.58472 227.242525 1049.54153 227.242525 1049.54153 296.212625 1080.79734 260.292359 1111.33555 260.292359 1077.92691 296.930233 1112.29236 354.817276 1082.39203 354.817276 1059.78738 314.352159 1049.54153 324.996678"></polygon>
                <path d="M1194.53821,286.724252 C1194.53821,263.401993 1170.61794,259.136213 1157.22259,259.136213 C1138.00664,259.136213 1118.11296,263.122924 1115.28239,292.225914 L1139.20266,292.225914 C1139.34976,288.416226 1141.06706,284.837313 1143.94684,282.33887 C1146.79958,279.831457 1150.578,278.644365 1154.35216,279.069767 C1160.69103,279.069767 1170.61794,279.627907 1170.61794,290.112957 C1170.61794,295.495017 1165.83389,297.009967 1161.92691,297.607973 L1139.7608,300.996678 C1124.05316,303.269103 1112.45183,312.717608 1112.45183,331.215947 C1112.29236,350.830565 1126.76412,358.803987 1140.83721,358.803987 C1152.5173,359.093173 1163.68473,354.009056 1171.13621,345.009967 C1171.38628,348.820028 1172.16448,352.576873 1173.4485,356.172757 L1200,356.172757 L1200,352.465116 C1197.00997,351.348837 1194.53821,348.877076 1194.53821,337.674419 L1194.53821,286.724252 Z M1170.61794,322.604651 C1170.61794,334.20598 1159.49502,341.302326 1148.57143,341.302326 C1145.50039,341.507646 1142.49081,340.373603 1140.31894,338.192691 C1138.11005,336.015023 1136.93528,332.998327 1137.0897,329.900332 C1137.0897,319.654485 1144.66445,317.302326 1153.83389,315.707641 C1159.77157,315.397404 1165.53909,313.61646 1170.61794,310.524917 L1170.61794,322.604651 Z" id="Shape-7" fill="#143A84"></path>
                <path d="M209.182724,432.199336 C206.874977,438.753677 200.489108,442.972912 193.554817,442.524917 C173.980066,442.524917 172.54485,426.578073 171.86711,419.44186 L235.215947,419.44186 L235.215947,414.936877 C235.215947,371.681063 210.059801,362.790698 191.800664,362.790698 C151.495017,362.790698 147.508306,399.269103 147.508306,410.631229 C147.508306,449.581395 167.72093,462.458472 193.554817,462.458472 C212.463659,463.185963 229.303503,450.585172 233.940199,432.239203 L209.182724,432.199336 Z M172.54485,403.17608 C173.980066,390.697674 180.039867,383.242525 191.481728,383.242525 C199.255814,383.242525 208.82392,387.827243 210.259136,403.17608 L172.54485,403.17608 Z" id="Shape-8" fill="#143A84"></path>
                <path d="M251.162791,365.302326 L275.521595,365.302326 L275.521595,381.528239 L275.521595,381.528239 C280.784053,372 286.564784,362.790698 302.033223,362.790698 C303.678891,362.671048 305.331076,362.671048 306.976744,362.790698 L306.976744,387.906977 C304.640124,387.574446 302.279472,387.441076 299.920266,387.508306 C279.986711,387.508306 276.55814,399.468439 276.55814,409.833887 L276.55814,458.471761 L251.162791,458.471761 L251.162791,365.302326 Z" id="Path-9" fill="#143A84"></path>
                <path d="M379.574751,365.501661 L379.574751,378.737542 L379.574751,378.737542 C374.831064,368.442762 364.258294,362.111762 352.943522,362.790698 C333.009967,362.790698 314.950166,378.33887 314.950166,410.152824 C314.950166,441.966777 332.332226,457.674419 354.259136,457.674419 C364.482724,458.565491 374.204293,453.087212 378.737542,443.880399 L378.737542,443.880399 L378.737542,454.963455 C378.737542,469.833887 372.55814,476.013289 359.641196,476.013289 C345.727575,476.013289 343.694352,471.388704 342.857143,466.684385 L316.54485,466.684385 C317.621262,486.259136 337.51495,494.352159 356.41196,494.352159 C401.38206,494.352159 402.578073,467.561462 402.578073,452.013289 L402.578073,364.983389 L379.574751,365.501661 Z M339.229236,411.986711 C339.229236,390.578073 349.23588,384.079734 358.126246,384.079734 C371.44186,384.079734 378.777409,396.039867 378.777409,410.870432 C378.777409,423.468439 374.790698,437.66113 358.285714,437.66113 C344.013289,437.66113 339.229236,423.86711 339.229236,412.066445" id="Shape-9" fill="#143A84"></path>
                <path d="M472.026578,394.20598 C470.950166,388.146179 468.916944,381.807309 455.880399,381.807309 C442.843854,381.807309 441.209302,386.910299 441.209302,391.016611 C441.209302,405.966777 498.33887,395.003322 498.33887,429.966777 C498.33887,457.51495 472.54485,462.458472 458.471761,462.458472 C437.740864,462.458472 415.295681,455.003322 414.61794,429.727575 L439.255814,429.727575 C439.255814,437.700997 444.039867,443.521595 459.189369,443.521595 C471.508306,443.521595 474.418605,437.262458 474.418605,433.754153 C474.418605,417.807309 417.887043,429.767442 417.887043,394.405316 C417.887043,380.611296 426.259136,362.790698 454.684385,362.790698 C472.54485,362.790698 493.833887,367.415282 495.667774,394.046512 L472.026578,394.20598 Z" id="Path-10" fill="#143A84"></path>
                <path d="M543.069767,364.704319 L558.139535,364.704319 L558.139535,382.046512 L543.069767,382.046512 L543.069767,432.239203 C543.069767,437.621262 543.069767,439.694352 553.156146,439.694352 L558.139535,439.694352 L558.139535,458.07309 C554.152824,458.07309 550.524917,458.471761 546.697674,458.471761 L543.946844,458.471761 C522.89701,458.471761 519.149502,450.498339 519.149502,438.299003 L519.149502,382.046512 L506.312292,382.046512 L506.312292,364.704319 L518.830565,364.704319 L518.830565,354.817276 L543.069767,354.817276 L543.069767,364.704319 Z" id="Path-11" fill="#143A84"></path>
                <path d="M570.099668,365.302326 L594.498339,365.302326 L594.498339,381.448505 L594.498339,381.448505 C599.760797,371.960133 605.621262,362.870432 621.049834,362.870432 C622.666929,362.724271 624.292604,362.69762 625.913621,362.790698 L625.913621,387.707641 C623.750441,387.548239 621.578463,387.548239 619.415282,387.707641 C599.481728,387.707641 595.973422,399.667774 595.973422,409.953488 L595.973422,458.471761 L570.099668,458.471761 L570.099668,365.302326 Z" id="Path-12" fill="#143A84"></path>
                <path d="M691.574751,432.199336 C689.189578,438.724254 682.801465,442.907333 675.86711,442.48505 C656.292359,442.48505 654.857143,426.538206 654.219269,419.401993 L717.607973,419.401993 L717.607973,414.89701 C717.607973,371.681063 692.451827,362.790698 674.112957,362.790698 C633.887043,362.790698 629.900332,399.269103 629.900332,410.631229 C629.900332,449.581395 650.112957,462.458472 675.86711,462.458472 C694.775951,463.185963 711.615795,450.585172 716.252492,432.239203 L691.574751,432.199336 Z M654.857143,403.17608 C656.292359,390.697674 662.352159,383.242525 673.873754,383.242525 C681.647841,383.242525 691.136213,387.827243 692.571429,403.17608 L654.857143,403.17608 Z" id="Shape-10" fill="#143A84"></path>
                <path d="M817.275748,425.342193 C815.394283,447.690672 795.774016,464.296552 773.421927,462.458472 C737.541528,462.458472 729.568106,435.269103 729.568106,415.335548 C729.568106,384.637874 743.003322,362.790698 775.17608,362.790698 C790.245847,362.790698 815.043189,369.687708 817.275748,399.0299 L791.840532,399.0299 C791.38891,390.236828 783.975826,383.426721 775.17608,383.72093 C759.468439,383.72093 755.242525,399.428571 755.242525,411.30897 C755.242525,421.634551 755.242525,442.046512 774.498339,442.046512 C783.640816,441.850237 791.083373,434.633739 791.561462,425.501661 L817.275748,425.342193 Z" id="Path-13" fill="#143A84"></path>
                <polygon id="Path-14" fill="#143A84" points="854.112957 458.471761 829.23588 458.471761 829.23588 354.89701 854.112957 354.817276 854.112957 400.425249 885.448505 364.903654 916.066445 364.903654 882.538206 401.142857 916.943522 458.471761 887.003322 458.471761 864.398671 418.405316 854.112957 428.9701"></polygon>
                <path d="M978.61794,432.239203 C976.282151,438.761957 969.903174,442.944092 962.990033,442.48505 C943.335548,442.48505 941.980066,426.538206 941.262458,419.401993 L1004.65116,419.401993 L1004.65116,414.936877 C1004.65116,371.681063 979.495017,362.790698 961.23588,362.790698 C920.930233,362.790698 916.943522,399.269103 916.943522,410.631229 C916.943522,449.621262 937.156146,462.458472 962.990033,462.458472 C981.839615,463.038377 998.590744,450.520505 1003.37542,432.27907 L978.61794,432.239203 Z M941.980066,403.215947 C943.335548,390.697674 949.395349,383.282392 960.916944,383.282392 C968.69103,383.282392 978.259136,387.906977 979.694352,403.215947 L941.980066,403.215947 Z" id="Shape-11" fill="#143A84"></path>
                <path d="M167.44186,83.7209302 C164.850498,83.7209302 160.624585,84.6777409 161.10299,80.4518272 C160.305648,76.4651163 164.212625,74.7109635 166.405316,73.5946844 C167.456112,73.043467 168.712896,73.0540083 169.754298,73.6227742 C170.795701,74.1915402 171.483855,75.2432343 171.58804,76.4252492 C172.186047,79.2159468 168.797342,82.2059801 167.601329,83.2425249 M176.651163,53.0631229 L178.883721,51.3488372 L195.58804,52.0265781 C196.43352,52.9061858 196.43352,54.296472 195.58804,55.1760797 L193.913621,57.1694352 L193.913621,89.8604651 C192.358804,90.9368771 191.122924,89.2225914 189.92691,88.8239203 C186.697674,86.9900332 180.55814,90.1395349 178.724252,86.1528239 L178.724252,57.9667774 C178.724252,56.0930233 175.813953,55.9734219 176.770764,53.5813953 M197.621262,122.870432 C197.222591,126.61794 198.777409,131.242525 196.345515,134.112957 L180.079734,129.009967 C178.923588,127.973422 179.282392,126.019934 179.681063,125.023256 C184.385382,122.312292 190.166113,121.036545 194.990033,118.20598 C197.900332,118.20598 196.345515,121.634551 197.621262,122.990033 M199.335548,102.857143 C202.325581,103.654485 203.322259,106.524917 205.116279,108.358804 C210.817276,117.169435 207.428571,127.016611 205.594684,136.903654 C204.837209,137.541528 204.438538,138.33887 203.481728,137.940199 C204.159468,127.295681 202.325581,118.006645 202.445183,106.963455 C201.448505,106.245847 199.893688,105.528239 198.777409,106.245847 C197.66113,106.963455 197.621262,107.681063 196.664452,107.202658 C195.787375,105.528239 198.777409,104.571429 199.335548,102.857143 M206.152824,88.2259136 C213.488372,84.2392027 223.415282,86.7906977 231.30897,87.5083056 L232.983389,89.1827243 L233.740864,104.571429 C228.119601,104.571429 223.534884,100.385382 218.033223,99.1495017 C214.046512,99.1495017 211.215947,96.1594684 207.827243,95.7607973 C204.438538,95.3621262 206.671096,90.7774086 206.152824,88.2259136 M253.116279,121.634551 C251.561462,123.747508 247.215947,124.54485 248.013289,128.451827 C248.019863,133.016107 248.366336,137.573561 249.049834,142.086379 C245.501661,143.920266 242.232558,140.531561 239.122924,139.694352 C237.408638,139.295681 234.578073,140.850498 234.019934,138.418605 C235.17608,130.644518 236.890365,119.840532 231.30897,113.820598 L231.30897,113.142857 C238.086379,116.571429 245.581395,118.803987 252.797342,121.674419 M245.581395,103.654485 C250.564784,104.292359 257.900332,101.980066 259.17608,107.840532 C259.17608,110.631229 261.767442,113.10299 259.17608,115.335548 C253.211698,113.90692 247.489498,111.60998 242.192691,108.518272 C241.92503,107.415929 242.111792,106.252259 242.710963,105.289037 C243.275434,104.330207 244.214912,103.650892 245.302326,103.415282 M271.774086,130.166113 L271.774086,166.48505 C270.976744,167.481728 269.66113,166.48505 269.38206,165.528239 C268.983389,158.671096 270.059801,149.581395 262.604651,146.750831 C259.431738,146.707855 256.356764,145.645591 253.833887,143.72093 C252.729371,138.412167 253.073631,132.904009 254.830565,127.774086 C260.66445,127.059056 266.584542,127.812771 272.053156,129.966777 M268.784053,112.903654 C269.820598,112.903654 270.538206,114.179402 271.375415,114.657807 C271.375415,116.451827 271.375415,117.249169 269.541528,117.727575 C267.707641,118.20598 266.750831,116.9701 265.554817,115.973422 C266.312292,114.458472 266.870432,113.182724 268.624585,112.903654 M272.611296,175.534884 C274.564784,174.657807 279.388704,174.817276 279.388704,177.92691 C279.388704,181.036545 278.631229,182.671096 281.10299,184.784053 C284.172757,185.302326 283.335548,188.770764 284.491694,190.843854 C284.172757,191.322259 284.172757,191.880399 283.734219,192.159468 C280.82392,188.850498 274.564784,187.016611 275.242525,181.355482 C274.445183,179.800664 272.611296,178.086379 272.850498,175.813953 M279.667774,133.156146 L280.225914,132.478405 C295.375415,137.342193 310.20598,144 325.79402,148.425249 C328.026578,149.142857 329.182724,147.508306 330.89701,146.750831 L330.89701,122.870432 C331.866241,122.245683 333.058505,122.071205 334.166113,122.392027 C335.266114,122.751934 336.172657,123.54336 336.677741,124.584718 C334.564784,124.584718 333.727575,127.295681 333.249169,129.129568 L333.249169,149.063123 L336,153.049834 L336,201.966777 L330.219269,201.289037 C330.219269,198.817276 333.887043,196.305648 330.61794,194.471761 C329.584693,193.398347 327.98616,193.094626 326.631229,193.714286 C325.755092,194.331146 325.164148,195.27472 324.991643,196.332253 C324.819137,197.389786 325.079594,198.47224 325.714286,199.335548 C325.714286,199.335548 326.511628,200.053156 326.232558,200.571429 C324.779179,201.237189 323.068659,200.97041 321.887043,199.893688 C321.887043,197.940199 324.55814,195.667774 322.325581,193.754153 C320.093023,191.840532 318.777409,192.677741 317.461794,192.119601 C316.205428,192.836121 315.063237,193.736437 314.07309,194.790698 C313.834132,196.616345 314.35273,198.460253 315.508306,199.893688 C313.579595,200.334382 311.596661,199.416661 310.684385,197.66113 C309.926829,191.77177 309.926829,185.809626 310.684385,179.920266 C305.860465,174.657807 297.966777,173.900332 291.30897,171.946844 L281.10299,168.518272 C279.987153,157.045871 279.667774,145.509948 280.146179,133.993355 M283.813953,119.083056 C288.159468,113.421927 297.408638,116.9701 304.225914,115.973422 C299.920266,118.20598 300.239203,123.946844 300.797342,128.571429 L303.189369,132.55814 C298.086379,131.122924 291.827243,128.571429 286.20598,126.697674 C283.933555,124.305648 282.219269,122.192691 283.534884,118.724252 M305.860465,121.754153 C307.255814,120.598007 308.9701,117.767442 311.44186,119.282392 C313.913621,120.797342 314.830565,124.54485 317.461794,126.099668 C318.77799,127.738119 319.394081,129.829962 319.17608,131.920266 C315.906977,132.797342 312.358804,134.631229 308.9701,132.956811 C306.467025,129.90259 305.341213,125.947814 305.860465,122.033223 M325.79402,121.275748 L325.79402,141.727575 C323.561462,141.727575 321.368771,139.893688 318.976744,139.016611 C320.810631,139.016611 322.963455,136.026578 323.800664,133.475083 C323.826687,127.454427 321.375933,121.687948 317.023256,117.528239 C319.734219,119.122924 323.800664,118.086379 325.51495,121.51495 M338.631229,132.159468 C346.604651,133.315615 341.780731,142.126246 343.056478,147.109635 C342.179402,148.54485 340.664452,147.508306 339.667774,147.109635 C338.626756,142.19897 338.27786,137.166811 338.631229,132.159468 M346.843854,156.119601 C347.194119,155.55351 347.88014,155.292169 348.518272,155.481728 L352.186047,165.049834 C352.658121,178.11958 352.351932,191.205838 351.269103,204.239203 C350.352159,205.674419 348.956811,204.239203 347.840532,204.239203 L346.843854,203.003322 L346.843854,156.119601 Z M349.156146,138.89701 C353.292197,139.62177 356.582375,142.770266 357.488372,146.870432 C353.854185,147.357521 350.279227,145.63276 348.398671,142.48505 L349.156146,138.89701 Z M358.046512,165.328904 L359.681063,163.614618 L359.681063,150.179402 C362.551495,150.179402 366.059801,150.179402 367.654485,153.249169 C368.69103,167.521595 368.69103,183.428571 369.089701,196.584718 C368.730819,200.643245 368.730819,204.725526 369.089701,208.784053 C367.136213,211.933555 373.315615,219.468439 366.219269,218.033223 C364.385382,216.637874 367.255814,214.046512 364.265781,213.647841 C361.275748,213.249169 356.491694,214.20598 354.33887,210.936877 C355.913432,211.548243 357.702369,211.101009 358.803987,209.820598 C357.528239,195.149502 358.405316,179.72093 358.126246,164.491694 M286.365449,213.089701 C281.262458,214.046512 279.986711,207.827243 275.481728,206.671096 C274.325581,205.714286 274.76412,203.003322 275.481728,201.568106 C276.318937,201.568106 276.598007,200.13289 276.438538,199.17608 C279.827243,201.847176 284.41196,203.162791 286.923588,206.950166 C286.524917,209.262458 288.877076,211.813953 286.923588,213.089701 M269.222591,203.561462 L258.777409,204.039867 C258.000699,195.792683 258.552566,187.474291 260.41196,179.401993 C264.094473,180.112962 267.370859,182.192755 269.581395,185.222591 C269.893474,191.330325 269.666683,197.45368 268.903654,203.521595 M255.149502,151.495017 C258.418605,153.169435 263.122924,152.491694 264.797342,156.598007 C265.355482,161.461794 266.232558,166.285714 266.511628,170.990033 C263.48287,171.205936 260.475245,170.344597 258.019934,168.55814 C256.345515,163.215947 259.136213,155.481728 255.149502,151.495017 M251.162791,165.049834 C246.857143,166.76412 241.076412,164.212625 237.966777,168.478405 C233.573814,173.962161 232.392381,181.353688 234.857143,187.933555 C236.13289,189.089701 237.687708,190.644518 236.531561,192.358804 C235.642479,194.08373 233.573713,194.831267 231.787375,194.07309 C233.621262,185.10299 228.358804,178.684385 228.797342,169.475083 C227.311872,165.041982 226.257161,160.476018 225.647841,155.840532 C232.863787,154.405316 243.069767,152.9701 249.568106,157.953488 C251.681063,159.667774 251.282392,162.538206 251.282392,164.770764 M242.790698,181.156146 C243.189369,178.843854 243.946844,174.33887 247.45515,176.451827 C250.963455,178.564784 246.657807,180 246.657807,181.913621 C245.501661,181.554817 243.508306,182.710963 242.671096,181.156146 M248.172757,206.431894 C244.903654,207.30897 241.913621,210.418605 238.564784,208.863787 C237.53252,206.334857 237.323279,203.544978 237.966777,200.890365 C240.677741,196.903654 247.495017,195.348837 248.730897,200.890365 C249.169435,202.604651 249.607973,205.116279 248.172757,206.431894 M241.156146,146.07309 C241.913621,146.471761 242.750831,146.631229 243.149502,147.428571 C236.807998,147.340639 230.474647,147.915183 224.252492,149.142857 C223.614618,148.744186 222.936877,148.465116 222.817276,147.787375 L222.817276,146.750831 C228.900086,146.006945 235.035022,145.780219 241.156146,146.07309 M226.883721,139.255814 L221.10299,140.69103 C219.149502,137.66113 219.667774,133.873754 218.112957,130.445183 C217.315615,126.139535 217.554817,119.800664 212.611296,118.20598 C212.441001,113.29926 211.429636,108.45819 209.621262,103.893688 C216.889347,105.330622 222.98607,110.249739 225.92691,117.049834 C228.996678,124.624585 226.76412,131.72093 226.883721,139.255814 M220.066445,209.820598 C216.47042,209.302112 212.818616,209.302112 209.222591,209.820598 C210.019934,206.272425 213.209302,202.325581 211.853821,197.182724 C215.521595,195.508306 222.179402,198.33887 224.770764,193.51495 C225.847176,189.528239 222.817276,187.973422 219.069767,188.651163 C213.408638,188.651163 208.305648,191.960133 202.684385,189.687708 C199.534884,185.940199 204.358804,182.870432 203.840532,179.162791 L203.840532,179.162791 C204.996678,175.614618 203.44186,173.302326 202.405316,170.152824 C195.58804,169.076412 200.571429,160.82392 196.744186,157.674419 C196.744186,155.960133 199.415282,156.877076 200.41196,155.561462 C206.654183,149.156337 211.01274,141.156454 213.009967,132.438538 L216.677741,149.421927 L213.767442,153.169435 C214.112066,163.257227 213.725673,173.356732 212.611296,183.388704 C213.129568,185.621262 214.046512,188.093023 216.598007,188.252492 C221.302326,186.657807 219.189369,181.395349 219.747508,177.568106 C219.468437,174.731099 219.468437,171.873552 219.747508,169.036545 L220.465116,169.036545 C223.32467,179.652401 225.587351,190.420097 227.242525,201.289037 L230.631229,214.963455 C226.901662,213.579988 223.266074,211.955293 219.747508,210.099668 M206.710963,226.046512 L204.916944,224.770764 C205.674419,220.106312 211.335548,221.142857 212.890365,217.913621 C217.714286,217.913621 223.853821,217.196013 225.887043,221.023256 C220.026578,224.292359 211.893688,221.461794 206.790698,226.405316 M180,210.458472 L180.996678,208.305648 C181.350492,208.247757 181.712009,208.346362 181.987431,208.57588 C182.262853,208.805399 182.425033,209.143208 182.431894,209.501661 C182.518996,210.147491 182.223478,210.785189 181.674419,211.136213 C180.877076,211.45515 180.598007,210.578073 180,210.458472 M174.89701,223.694352 L178.564784,215.72093 L179.043189,223.694352 C177.730659,223.989369 176.369009,223.989369 175.056478,223.694352 M193.754153,227.122924 L193.754153,233.940199 C186.936877,230.272425 176.212625,233.10299 168.996678,230.272425 C165.607973,228.877076 161.023256,230.272425 157.833887,229.315615 C157.833887,228.677741 157.076412,228.27907 156.677741,227.880399 C158.389315,225.597123 159.146924,222.73822 158.790698,219.906977 L156.119601,217.51495 C159.35074,215.882394 161.41976,212.602613 161.501661,208.983389 C165.76058,208.22567 170.119818,208.22567 174.378738,208.983389 C174.378738,215.800664 164.451827,221.940199 170.950166,228.159468 C173.820598,229.475083 178.564784,226.604651 180.159468,230.471761 C181.714286,231.0299 182.591362,229.714286 183.548173,228.757475 C186.538206,225.009967 181.156146,214.365449 189.647841,216.199336 C192.677741,211.295681 187.574751,208.026578 185.66113,203.840532 C180.567116,202.639052 175.292195,202.40912 170.112957,203.162791 C165.488372,202.445183 160.504983,206.312292 156.518272,202.644518 C143.322259,202.644518 129.289037,202.006645 117.129568,203.162791 C117.129568,201.887043 118.405316,201.488372 119.362126,201.209302 C144.996678,198.458472 172.624585,197.940199 199.096346,197.780731 C201.049834,198.61794 205.196013,197.222591 204.877076,200.451827 C203.521595,202.445183 204.039867,204.877076 201.209302,205.554817 C200.442585,205.020944 199.424525,205.020944 198.657807,205.554817 C197.903935,206.097882 197.556594,207.045176 197.780731,207.946844 C197.622701,209.425728 198.47079,210.828336 199.853821,211.375415 L205.355482,211.375415 C198.901298,213.900531 194.405475,219.828242 193.714286,226.724252 M183.787375,249.049834 C173.182724,248.372093 164.252492,251.760797 151.893688,250.046512 C150.777409,248.611296 151.45515,246.059801 149.501661,245.342193 C143.122924,245.342193 135.0299,243.388704 129.767442,247.056478 L120.318937,246.657807 C120.435192,244.081994 121.188586,241.575244 122.511628,239.362126 C131.003322,236.053156 140.451827,238.046512 147.986711,233.182724 C157.475083,235.574751 167.521595,235.056478 177.129568,237.92691 C181.055455,237.946514 184.959691,238.510012 188.730897,239.601329 C187.17608,242.750831 188.212625,247.933555 183.906977,248.810631 M122.631229,224.212625 C121.196013,223.415282 122.631229,222.259136 122.631229,221.10299 C125.740864,219.58804 130.325581,220.54485 131.122924,216.318937 C131.122924,214.20598 131.521595,211.614618 129.408638,210.179402 C127.406943,210.378713 125.3904,210.378713 123.388704,210.179402 L124.584718,208.465116 C134.462441,207.832105 144.379563,208.259798 154.166113,209.740864 C150.179402,211.335548 144.598007,209.740864 140.571429,211.17608 C138.737542,213.169435 141.209302,215.162791 140.571429,217.275748 C142.365449,222.936877 148.54485,220.425249 152.531561,222.378738 C152.850498,223.534884 151.574751,223.813953 150.817276,224.093023 C141.539161,224.945587 132.208981,225.078875 122.910299,224.491694 M122.232558,215.960133 L117.368771,215.960133 C115.335548,211.654485 121.674419,212.41196 122.232558,214.20598 L122.232558,215.960133 Z M123.58804,176.372093 C125.342193,172.983389 129.92691,174.61794 131.282392,177.009967 C131.282392,180.119601 132.079734,181.913621 130.325581,184.504983 C128.547725,185.825897 126.185389,186.055995 124.186047,185.10299 C120.996678,182.710963 122.790698,179.162791 123.58804,176.372093 M137.10299,151.495017 C139.415282,147.149502 138.139535,142.445183 140.770764,138.179402 C142.647356,142.477143 144.902066,146.599661 147.508306,150.498339 C146.431894,152.611296 146.950166,156.039867 144.598007,158.033223 C142.897024,157.424147 141.009095,157.645388 139.495017,158.631229 C137.780731,162.61794 137.501661,167.840532 134.392027,170.990033 C130.724252,170.990033 132.797342,166.006645 131.521595,163.734219 C138.33887,162.737542 134.631229,155.760797 137.023256,151.45515 M192.598007,172.704319 C194.661387,172.065713 196.87187,173.101877 197.700997,175.096346 C198.407831,177.68664 197.763504,180.458742 195.986711,182.471761 C192.996678,183.906977 190.76412,181.634551 188.531561,180.199336 C186.817276,176.531561 189.727575,173.940199 192.518272,172.704319 M182.591362,184.305648 C185.700997,185.302326 183.667774,188.611296 183.269103,190.564784 C170.884435,190.598037 158.509535,191.263355 146.192691,192.55814 L135.86711,192.55814 C135.051085,191.591621 134.562557,190.391237 134.471761,189.129568 C139.813953,187.973422 137.182724,181.913621 140.252492,178.923588 C141.155869,174.717315 142.491881,170.615758 144.239203,166.684385 C147.348837,167.083056 148.983389,164.69103 150.578073,162.697674 C150.546256,160.769644 151.327705,158.917321 152.730897,157.594684 C163.249728,164.613853 176.474878,166.226315 188.372093,161.940199 L189.647841,162.697674 C186.538206,164.013289 190.365449,168.518272 186.259136,168.797342 C181.036545,172.066445 181.993355,179.760797 182.870432,184.425249 M145.076412,122.192691 C145.896035,117.215347 148.268197,112.624516 151.853821,109.076412 L152.611296,109.833887 C147.62564,117.411452 146.714984,126.965875 150.179402,135.348837 C150.179402,136.784053 152.013289,136.784053 153.169435,136.784053 C156.27907,134.950166 153.169435,132.27907 153.169435,129.966777 C152.869628,120.942839 157.238624,112.400698 164.730897,107.362126 C171.821428,103.181716 180.665456,103.366931 187.574751,107.840532 C188.651163,109.833887 190.843854,109.475083 190.923588,111.827243 C186.492048,114.941305 181.764976,117.611967 176.810631,119.800664 C173.28436,116.421374 167.970678,115.72688 163.694352,118.086379 C160.068474,120.901467 158.695336,125.747836 160.305648,130.046512 C162.259136,132.079734 164.292359,135.787375 167.800664,136.186047 C172.465116,138.019934 177.448505,131.202658 181.913621,135.627907 L190.843854,141.009967 C191.72093,144.55814 186.857143,144.996678 185.063123,147.109635 C178.245847,148.265781 168.677741,149.980066 163.295681,144.438538 C161.860465,144.438538 159.747508,143.561462 158.870432,145.395349 C158.870432,150.498339 163.973422,151.056478 167.362126,152.611296 C174.858348,155.604235 183.358434,154.614807 189.966777,149.980066 C193.953488,148.943522 196.146179,144.039867 200.172757,142.724252 C200.9701,146.710963 196.186047,148.82392 193.913621,151.255814 C187.828809,155.669866 180.458099,157.953945 172.943522,157.754153 C166.166113,155.083056 157.51495,155.641196 153.847176,147.86711 C150.179402,140.093023 140.9701,132.757475 145.076412,121.714286 M158.671096,99.6677741 C167.035237,94.8733494 176.736275,92.941541 186.299003,94.166113 C189.09001,95.0334011 191.707607,96.3826776 194.033223,98.1528239 C189.687708,106.126246 182.591362,95.7607973 176.372093,98.6710963 C169.554817,96.8372093 164.41196,101.820598 157.993355,102.857143 C156.27907,101.700997 157.993355,101.023256 158.671096,99.8272425 M383.122924,179.880399 L379.136213,178.684385 L379.136213,158.232558 C387.109635,161.142857 382.126246,172.54485 383.521595,179.800664 M410.631229,78.7774086 C406.644518,60.1196013 385.51495,56.9302326 369.807309,54.179402 C368.810631,52.6245847 371.800664,51.6677741 372.199336,50.192691 C374.738346,44.2793946 373.533121,37.4236972 369.129568,32.730897 C358.833443,24.6817401 346.5929,19.4967009 333.647841,17.7009967 C332.41196,16.9036545 331.255814,18.7375415 330.299003,17.0232558 C325.754153,17.0232558 322.086379,15.3089701 316.704319,15.3089701 C308.897491,14.4601031 301.011571,14.6746859 293.262458,15.9468439 C284.576028,9.43580965 274.621041,4.81821683 264.039867,2.39202658 C254.352159,-1.59468439 242.192691,1.43521595 232.146179,0 C216.199336,1.99335548 199.574751,1.71428571 188.013289,13.1162791 C174.397167,10.3941774 160.304814,14.4184424 150.179402,23.9202658 C146.910299,28.9036545 142.803987,34.166113 146.192691,40.9833887 C149.900332,49.6744186 159.468439,49.3953488 167.282392,50.9501661 C166.405316,54.9368771 169.674419,57.3687708 170.950166,60.0398671 C169.289261,60.4918215 167.558119,60.627067 165.847176,60.4385382 C163.335548,61.8737542 163.893688,65.1428571 163.893688,68.013289 C158.198593,71.9142089 155.489593,78.9164207 157.076412,85.6345515 C158.232558,87.7475083 160.744186,88.7840532 161.063123,90.7375415 C154.67344,93.9992643 149.542899,99.2840019 146.471761,105.767442 C146.950166,113.142857 137.421927,111.0299 137.940199,118.405316 C135.827243,128.491694 133.953488,138.89701 131.920266,148.704319 C131.920266,150.418605 130.325581,151.774086 130.76412,153.209302 C130.20598,156.916944 129.328904,162.019934 123.946844,160.026578 C120.956811,161.740864 123.946844,165.169435 122.511628,166.843854 C123.269103,173.262458 115.734219,176.571429 116.890365,183.946844 C116.890365,186.179402 118.963455,187.215947 120.27907,188.770764 C123.109635,196.425249 113.860465,192.478405 111.787375,196.54485 C109.648673,202.434837 109.260972,208.818055 110.671096,214.923588 C108.837209,217.594684 106.684385,213.089701 104.571429,212.611296 C91.1663898,207.154706 75.8465647,209.513959 64.7043189,218.750831 C59.7209302,218.750831 55.3754153,214.76412 49.8737542,215.322259 C34.5751612,216.426739 19.8929574,221.799624 7.49501661,230.830565 C4.22591362,234.418605 0,237.249169 0,243.189369 C0.677740864,244.026578 1.71428571,246.219269 3.38870432,245.461794 C7.96299323,239.650729 13.4575487,234.62752 19.654485,230.591362 C30.2697672,224.737208 42.3131549,221.974963 54.4186047,222.61794 C58.0863787,222.61794 59.5215947,226.006645 61.1960133,228.757475 C63.1846904,230.183708 65.7827337,230.441993 68.013289,229.435216 C66.2990033,223.614618 72.6378738,221.461794 75.7475083,219.189369 C83.6072583,214.696451 93.055376,213.922494 101.541528,217.076412 C106.086379,217.754153 104.810631,223.893688 109.51495,224.571429 C112.305648,232.026578 121.475083,229.036545 128.172757,229.714286 L130.245847,231.428571 C126.059801,232.584718 120.55814,230.591362 117.009967,233.10299 C117.009967,238.843854 113.023256,242.950166 112.584718,248.491694 C115.973422,255.986711 127.614618,251.202658 134.950166,252.478405 C136.943522,249.408638 141.767442,251.401993 144.877076,250.803987 C146.241289,252.221941 147.692611,253.553429 149.222591,254.790698 L189.089701,254.790698 C193.395349,251.920266 191.960133,245.302326 195.906977,241.873754 C197.063123,242.591362 197.581395,244.704319 199.295681,243.86711 C206.461679,234.9865 216.655651,229.066045 227.920266,227.242525 C229.953488,227.242525 231.0299,229.51495 233.262458,228.956811 C237.687708,229.754153 237.249169,224.531561 239.122924,222.139535 C243.747508,212.770764 255.069767,211.694352 265.23588,210.458472 C270.61794,212.013289 266.392027,218.431894 267.627907,222.139535 C272.172757,222.817276 272.730897,216.996678 274.445183,214.166113 C281.820598,216.358804 277.435216,224.41196 279.508306,229.79402 C285.368771,229.79402 288.039867,221.820598 294.538206,222.259136 C300.079734,224.651163 302.511628,233.063123 309.847176,231.229236 C312.637874,229.116279 307.534884,228.079734 307.415282,225.687708 C305.700997,223.45515 302.431894,222.538206 302.312292,219.548173 C304.504983,217.714286 308.292359,218.870432 310.524917,218.192691 C316.032614,217.743159 321.575846,218.324522 326.870432,219.906977 C333.986725,221.297109 339.71881,226.56693 341.700997,233.541528 C342.976744,239.960133 332.770764,239.122924 333.727575,245.501661 C334.604651,247.056478 336.039867,246.936877 337.714286,246.936877 C351.86711,240.079734 371.72093,238.963455 385.315615,247.933555 C386.750831,248.770764 389.302326,249.289037 390.418605,247.933555 L390.418605,244.54485 C378.284703,236.915369 363.660932,234.299386 349.634551,237.249169 C348.677741,238.285714 347.003322,237.249169 347.003322,236.053156 C348.956811,229.196013 342.697674,225.408638 340.584718,220.106312 C329.980066,211.893688 315.30897,211.774086 302.511628,213.249169 C299.72093,213.249169 296.611296,215.920266 294.538206,213.249169 C292.584718,211.415282 295.215947,209.262458 296.651163,208.425249 C296.651163,202.006645 297.607973,195.667774 297.328904,189.368771 L295.654485,186.219269 C293.820598,183.348837 289.993355,183.827243 287.681063,181.873754 C286.126246,180.956811 287.681063,179.561462 287.681063,178.445183 C292.584337,179.234337 297.4418,180.285678 302.232558,181.594684 L304.943522,183.986711 L306.059801,201.328904 C307.734219,205.315615 312.837209,205.953488 317.262458,206.152824 L317.262458,206.152824 C329.581395,206.591362 341.621262,212.093023 354.179402,210.936877 C353.023256,212.651163 350.392027,214.086379 350.192691,216.677741 C353.461794,217.475083 353.063123,220.903654 354.179402,223.495017 C355.853821,231.747508 366.139535,224.13289 368.9701,231.468439 C370.581016,231.678312 372.158159,230.88974 372.956811,229.475083 L396.039867,231.468439 C398.671096,231.468439 397.993355,228.478405 397.116279,227.481728 C389.429922,225.598673 381.579385,224.463816 373.674419,224.093023 L371.282392,222.378738 C368.9701,216.637874 375.508306,221.501661 376.305648,220.066445 C381.402395,221.822728 386.665804,223.051747 392.013289,223.734219 C394.20598,223.734219 396.996678,224.491694 398.152824,222.378738 C399.797977,220.105559 399.614604,216.988209 397.714286,214.923588 L381.966777,211.295681 C379.853821,210.737542 376.983389,211.295681 375.548173,209.66113 C375.548173,201.92691 374.591362,193.993355 374.870432,184.584718 L375.548173,183.388704 C378.139535,187.375415 384.079734,183.388704 386.511628,188.172757 C389.581395,188.930233 393.328904,192.159468 396.239203,189.887043 C398.192691,184.624585 391.136213,186.817276 389.900332,183.069767 C389.103212,176.969451 389.103212,170.791346 389.900332,164.69103 C392.571429,165.328904 395.282392,169.116279 397.873754,166.405316 C397.854583,164.901455 397.237782,163.467034 396.159468,162.418605 C385.275748,158.112957 376.225914,150.059801 365.621262,144.956811 C364.744186,144.55814 363.946844,143.242525 365.222591,142.684385 C375.348837,146.671096 383.44186,155.043189 394.803987,156.916944 C395.51938,156.741096 396.083692,156.192035 396.27907,155.481728 C396.475577,154.880653 396.355642,154.22101 395.960133,153.727575 C386.352171,148.453825 377.036259,142.664652 368.053156,136.385382 C358.604651,133.116279 351.348837,125.740864 342.857143,120.438538 C326.591362,108.079734 305.38206,106.803987 284.810631,108.079734 C281.700997,105.647841 279.468439,101.940199 274.644518,102.976744 C271.415282,102.976744 272.372093,106.524917 270.259136,107.840532 C268.146179,109.156146 267.428571,107.840532 266.591362,106.803987 C268.026578,102.817276 265.435216,99.986711 263.481728,97.1162791 C261.92691,96.1594684 259.495017,96.5581395 258.099668,95.4019934 C255.388704,96.2790698 254.551495,93.0099668 252.598007,92.4518272 C249.494726,92.3140984 246.519124,93.6977536 244.624585,96.1594684 C242.232558,96.1594684 240.27907,99.5481728 237.807309,96.8372093 L238.365449,81.7674419 C236.332226,77.3421927 231.229236,76.5049834 227.242525,76.0265781 C224.571429,75.0697674 227.242525,71.4019934 223.813953,70.2458472 C220.146179,70.7641196 215.840532,69.2093023 212.930233,71.6810631 C212.930233,78.4983389 204.956811,76.1860465 201.368771,79.4551495 C197.780731,82.7242525 204.039867,89.820598 200.372093,93.089701 C199.694352,93.089701 199.215947,92.2923588 198.657807,91.8139535 L198.657807,62.7906977 C198.657807,59.9202658 202.325581,58.8039867 204.438538,57.0099668 C205.475083,54.6578073 205.754153,50.5913621 202.325581,49.4352159 C192.478405,45.1694352 178.405316,41.461794 168.318937,47.4418605 L167.44186,46.4053156 C161.373629,45.9146951 155.810362,42.835289 152.172757,37.9534884 C150.857143,33.5282392 155.162791,29.5415282 157.993355,25.9933555 C169.475083,15.9468439 185.142857,19.1760797 199.614618,21.5681063 C203.601329,17.3421927 196.345515,18.1395349 195.269103,15.3488372 C196.82392,12.4784053 199.614618,13.1162791 202.046512,10.923588 C220.122928,6.15844708 238.929516,4.80642783 257.501661,6.93687708 C267.069767,9.60797342 278.431894,10.3654485 285.089701,18.1395349 C283.534884,20.8504983 276.757475,19.4551495 279.508306,23.9601329 C301.634551,17.10299 327.348837,21.1295681 347.521595,27.3488372 C355.495017,31.3355482 368.810631,35.7607973 368.332226,46.4053156 C367.813953,52.6644518 357.328904,51.7873754 359.44186,58.3654485 C375.149502,64.6644518 396.996678,60.8372093 405.328904,79.255814 C406.423167,83.1129842 404.93047,87.2379647 401.621262,89.5016611 C395.379156,94.636976 388.522534,98.9759321 381.209302,102.418605 C380.881855,102.851004 380.778355,103.412859 380.930233,103.933555 C381.054409,104.455181 381.405398,104.893917 381.887043,105.129568 C387.781363,104.407318 393.480549,102.552713 398.671096,99.6677741 C405.009967,95.0830565 412.265781,88.4252492 410.631229,79.1760797" id="Shape-12" fill="#242422"></path>
                <path d="M256.066445,44.0930233 C254.910299,43.3355482 254.232558,44.6910299 252.916944,44.0930233 C239.986369,52.2327756 223.921288,53.6284481 209.780731,47.8405316 C209.140343,47.7962596 208.51037,48.0201872 208.041597,48.458717 C207.572824,48.8972468 207.307442,49.5109093 207.308964,50.1528239 C215.282392,61.1960133 230.591362,56.6910299 242.352159,55.2956811 L243.388704,55.9734219 C243.479302,59.3754648 244.294801,62.7190129 245.780731,65.7807309 C253.076412,80.2126246 269.700997,83.9601329 285.647841,84.4784053 L286.365449,88.0265781 C291.348837,96 301.674419,96 311.840532,95.5614618 C313.437314,95.5206519 314.728168,94.247242 314.790698,92.6511628 C307.933555,90.2591362 298.843854,90.89701 292.54485,87.1096346 C292.106312,82.8438538 298.086379,83.4418605 300.518272,80.5315615 C301.674419,78.7774086 305.501661,79.7740864 305.66113,76.5448505 C299.800664,74.0332226 294.259136,78.4186047 288.478405,77.8604651 C282.219269,79.9335548 276.518272,76.9435216 270.219269,76.5448505 C260.391259,75.3412469 252.143014,68.5686762 249.049834,59.1627907 C248.013289,52.6245847 257.38206,50.192691 255.906977,44.013289" id="Path-15" fill="#242422"></path>
            </g>
        </g>
    </g>
</svg>